<svg width="30" height="31" viewBox="0 0 30 31" fill="none" xmlns="http://www.w3.org/2000/svg">
<path d="M12.8407 0.622984C10.1915 1.00403 7.62702 2.08065 5.4496 3.87702L10.131 8.55847C11.8125 6.39315 12.75 3.64718 12.8407 0.622984ZM15 13.4274L24.5504 3.87702C21.9859 1.76008 18.8891 0.64113 15.75 0.483871C15.6774 4.34879 14.4496 7.88105 12.1996 10.627L15 13.4274ZM3.39315 5.93347C1.59677 8.11089 0.520161 10.6754 0.139113 13.3246C3.16331 13.2339 5.91532 12.2964 8.0746 10.6149L3.39315 5.93347ZM19.8569 18.2843C22.5968 16.0403 26.129 14.8125 30 14.7339C29.8427 11.5948 28.7238 8.49798 26.6069 5.93347L17.0565 15.4839L19.8569 18.2843ZM15 17.5403L5.4496 27.0907C8.01411 29.2016 11.1109 30.3266 14.25 30.4839C14.3286 26.6129 15.5565 23.0806 17.8004 20.3407L15 17.5403ZM26.6069 25.0343C28.4032 22.8569 29.4798 20.2923 29.8609 17.6431C26.8306 17.7399 24.0847 18.6774 21.9254 20.3528L26.6069 25.0343ZM10.1431 12.6835C7.39718 14.9335 3.86492 16.1673 0 16.2339C0.157258 19.373 1.27621 22.4698 3.39315 25.0343L12.9435 15.4839L10.1431 12.6835ZM17.1593 30.3448C19.8085 29.9637 22.373 28.8871 24.5504 27.0907L19.869 22.4093C18.1935 24.5685 17.256 27.3206 17.1593 30.3448Z" fill="#FF5252"/>
</svg>
