<svg width="30" height="30" viewBox="0 0 30 30" fill="none" xmlns="http://www.w3.org/2000/svg">
<path d="M29.123 3.16331C28.8327 2.0625 27.9677 1.19758 26.8669 0.90121C25.4214 0.514113 23.1653 0.0544355 20.5282 0L30 9.48387C29.9516 6.85282 29.504 4.60887 29.123 3.16331ZM0.877016 26.8367C1.16734 27.9375 2.03226 28.8024 3.13306 29.0988C4.57863 29.4859 6.83468 29.9456 9.47177 30L0 20.5161C0.0483871 23.1472 0.495968 25.3911 0.877016 26.8367ZM0.254032 16.6573L13.3306 29.7581C21.3448 28.5847 28.379 22.5786 29.752 13.3427L16.6694 0.241935C8.65524 1.41532 1.62097 7.42137 0.254032 16.6573ZM19.4456 9.18145C19.6331 8.99395 19.9415 8.99395 20.129 9.18145L20.8125 9.86492C21 10.0524 21 10.3609 20.8125 10.5484L19.1008 12.2601L20.8125 13.9718C21 14.1593 21 14.4677 20.8125 14.6552L20.129 15.3387C19.9415 15.5262 19.6331 15.5262 19.4456 15.3387L17.7339 13.627L16.3669 15L18.0786 16.7117C18.2661 16.8992 18.2661 17.2077 18.0786 17.3952L17.3952 18.0786C17.2077 18.2661 16.8992 18.2661 16.7117 18.0786L15 16.3669L13.6331 17.7339L15.3448 19.4456C15.5323 19.6331 15.5323 19.9415 15.3448 20.129L14.6613 20.8125C14.4738 21 14.1653 21 13.9778 20.8125L12.2661 19.1008L10.5544 20.8125C10.3669 21 10.0585 21 9.87097 20.8125L9.1875 20.129C9 19.9415 9 19.6331 9.1875 19.4456L10.8992 17.7339L9.1875 16.0282C9 15.8407 9 15.5323 9.1875 15.3448L9.87097 14.6613C10.0585 14.4738 10.3669 14.4738 10.5544 14.6613L12.2661 16.373L13.6331 15.006L11.9214 13.2944C11.7339 13.1069 11.7339 12.7984 11.9214 12.6109L12.6048 11.9274C12.7923 11.7399 13.1008 11.7399 13.2883 11.9274L15 13.6391L16.3669 12.2722L14.6552 10.5605C14.4677 10.373 14.4677 10.0645 14.6552 9.87702L15.3387 9.19355C15.5262 9.00605 15.8347 9.00605 16.0222 9.19355L17.7339 10.9052L19.4456 9.18145Z" fill="#FF5252"/>
</svg>
