<svg width="30" height="30" viewBox="0 0 30 30" fill="none" xmlns="http://www.w3.org/2000/svg">
<path d="M30 15C30 23.2843 23.2843 30 15 30C6.71571 30 0 23.2843 0 15C0 6.71571 6.71571 0 15 0C23.2843 0 30 6.71571 30 15ZM27.0968 15L27.0966 14.9829L25.5201 16.3584L21.7291 12.8201L22.7243 7.71798L24.7991 7.90379C23.2937 5.83427 21.1698 4.26938 18.7078 3.47994L19.5334 5.41173L15 7.92339L10.4666 5.41179L11.2922 3.48C8.8347 4.26798 6.70875 5.83101 5.20095 7.90385L7.29157 7.71798L8.27093 12.8201L4.47992 16.3584L2.90347 14.9829L2.90329 15C2.90329 17.6017 3.71964 20.0777 5.23022 22.1366L5.69619 20.0863L10.8457 20.7182L13.0413 25.4254L11.2327 26.5012C13.6643 27.2949 16.3309 27.2964 18.7673 26.5012L16.9587 25.4254L19.1543 20.7182L24.3038 20.0863L24.7698 22.1366C26.2804 20.0777 27.0968 17.6017 27.0968 15ZM12.0906 19.2079L10.2825 13.685L15 10.266L19.7175 13.685L17.9258 19.2079H12.0906Z" fill="#FF5252"/>
</svg>
