<svg width="30" height="30" viewBox="0 0 30 30" fill="none" xmlns="http://www.w3.org/2000/svg">
<path d="M13.558 14.2664C13.513 12.1361 13.0616 10.034 12.2279 8.07304C6.90761 10.5574 2.99941 15.2449 1.66347 20.7762C2.44529 22.5675 3.57905 24.1834 4.99745 25.5281C6.34631 20.8378 9.39962 16.8211 13.558 14.2664ZM11.3959 6.3914C10.5047 4.83875 9.36907 3.43994 8.03261 2.24882C2.70058 5.16679 -0.451766 11.2078 0.70839 17.6121C2.66542 12.743 6.47402 8.70586 11.3959 6.3914ZM22.3881 16.0652C22.892 10.2176 20.7885 4.49296 16.6752 0.57304C15.8139 0.47343 13.6518 0.250774 10.8803 1.07109C14.2712 4.58487 16.2253 9.23979 16.3588 14.1211C18.2261 15.1479 20.2727 15.8078 22.3881 16.0652ZM15.0814 16.6219C13.259 17.7284 11.6641 19.1721 10.3822 20.8758C15.1869 24.2332 21.1928 25.2762 26.642 23.6766C27.8141 22.1061 28.6553 20.3141 29.1146 18.409C27.5652 18.8038 25.9734 19.0084 24.3744 19.0184C21.1752 19.0125 17.9935 18.1922 15.0814 16.6219ZM9.32167 22.4637C8.43105 23.9871 7.81581 25.6512 7.44081 27.3973C10.04 28.9926 13.0766 29.7263 16.1174 29.4938C19.1583 29.2612 22.048 28.0743 24.3744 26.1024C17.7592 27.0457 12.4623 24.6492 9.32167 22.4637ZM19.8861 1.33476C23.1264 5.45976 24.7201 10.7801 24.2572 16.1941C26.0423 16.1979 27.8165 15.917 29.5131 15.3621C29.5131 15.2449 29.5307 15.1277 29.5307 15.0105C29.5307 8.69414 25.5053 3.34453 19.8861 1.33476Z" fill="#FF5252"/>
</svg>
