<svg width="30" height="30" viewBox="0 0 30 30" fill="none" xmlns="http://www.w3.org/2000/svg">
<path d="M29.1738 8.32211L26.4725 11.0234C26.1971 11.2988 25.7518 11.2988 25.4764 11.0234L18.9721 4.51922C18.6967 4.24382 18.6967 3.79849 18.9721 3.52309L21.6734 0.82181C22.7692 -0.273937 24.5505 -0.273937 25.6521 0.82181L29.1738 4.34343C30.2754 5.43918 30.2754 7.2205 29.1738 8.32211ZM16.6517 5.84349L1.2643 21.2308L0.0220501 28.3502C-0.14788 29.3112 0.69005 30.1433 1.65103 29.9792L8.7705 28.7311L24.1579 13.3438C24.4333 13.0684 24.4333 12.6231 24.1579 12.3477L17.6537 5.84349C17.3725 5.56809 16.9271 5.56809 16.6517 5.84349ZM7.27043 19.9124C6.94815 19.5901 6.94815 19.0745 7.27043 18.7522L16.2943 9.72841C16.6166 9.40614 17.1322 9.40614 17.4545 9.72841C17.7768 10.0507 17.7768 10.5663 17.4545 10.8886L8.43064 19.9124C8.10836 20.2347 7.59271 20.2347 7.27043 19.9124ZM5.1551 24.8403H7.96773V26.9674L4.18826 27.6295L2.36591 25.8072L3.02805 22.0277H5.1551V24.8403Z" fill="#FF5252"/>
</svg>
