<svg width="30" height="34" viewBox="0 0 30 34" fill="none" xmlns="http://www.w3.org/2000/svg">
<path d="M15 16.9355C19.7344 16.9355 23.5714 13.1448 23.5714 8.46774C23.5714 3.79064 19.7344 0 15 0C10.2656 0 6.42857 3.79064 6.42857 8.46774C6.42857 13.1448 10.2656 16.9355 15 16.9355ZM21 19.0524H19.8817C18.3951 19.7272 16.7411 20.1109 15 20.1109C13.2589 20.1109 11.6116 19.7272 10.1183 19.0524H9C4.03125 19.0524 0 23.0349 0 27.9435V30.6956C0 32.4487 1.43973 33.871 3.21429 33.871H26.7857C28.5603 33.871 30 32.4487 30 30.6956V27.9435C30 23.0349 25.9688 19.0524 21 19.0524Z" fill="#FF5252"/>
</svg>
