<svg width="30" height="30" viewBox="0 0 30 30" fill="none" xmlns="http://www.w3.org/2000/svg">
<path d="M15 29.5312C6.97266 29.5312 0.46875 23.0273 0.46875 15C0.46875 6.97266 6.97266 0.46875 15 0.46875C23.0273 0.46875 29.5313 6.97266 29.5313 15C29.5312 23.0273 23.0273 29.5312 15 29.5312ZM16.6934 21.1172L12.2695 16.875H22.9688C23.748 16.875 24.375 16.248 24.375 15.4688V14.5312C24.375 13.752 23.748 13.125 22.9688 13.125L12.2695 13.125L16.6934 8.88281C17.2617 8.33789 17.2734 7.42969 16.7168 6.87305L16.0723 6.23438C15.5215 5.68359 14.6309 5.68359 14.0859 6.23437L6.31055 14.0039C5.75977 14.5547 5.75977 15.4453 6.31055 15.9902L14.0859 23.7715C14.6367 24.3223 15.5273 24.3223 16.0723 23.7715L16.7168 23.1328C17.2734 22.5703 17.2617 21.6621 16.6934 21.1172Z" fill="#FF5252"/>
</svg>
